<svg viewBox="0 0 96 96" xmlns="http://www.w3.org/2000/svg" xmlns:xlink="http://www.w3.org/1999/xlink" id="Icons_Sunglasses_M" overflow="hidden"><style>
.MsftOfcResponsive_Fill_0b2f4a {
 fill:#0B2F4A; 
}
.MsftOfcResponsive_Stroke_0b2f4a {
 stroke:#0B2F4A; 
}
</style>
<g id="Icons"><path d="M89 35.7C83.6 34.6 78.2 34.1 72.7 34 65.6 33.9 58.6 35.1 52 37.7 49.4 38.6 46.6 38.6 44 37.7 37.4 35.2 30.4 33.9 23.3 34 17.8 34 12.4 34.6 7 35.7 5.4 35.8 4.1 37.1 4 38.7 4 40.3 5.3 41.7 6.9 41.7 6.9 41.7 7 41.7 7 41.7 7 41.7 7.9 45.7 9.3 52.2 10.7 58.7 14.2 62 25 62 30.3 62 34.2 61.8 37 59 40.5 55.4 44.4 45.9 44.4 45.9 45.5 43.9 48 43.2 50 44.3 50.7 44.7 51.2 45.2 51.6 45.9 51.6 45.9 55.5 55.4 59 59 61.8 61.8 65.7 62 71 62 81.8 62 85.2 58.8 86.7 52.2 88.2 45.6 89 41.8 89 41.8 90.6 41.8 92 40.5 92 38.9 92 38.9 92 38.8 92 38.8 92 37 90.6 36 89 35.7ZM89.8 38.3 88.3 39.8 87.4 39.8 87.1 41 68.1 60C67.1 60 66.1 59.9 65.2 59.8L87.4 37.6C87.8 37.7 88.2 37.7 88.6 37.8 89.1 37.7 89.5 37.9 89.8 38.3L89.8 38.3ZM59.5 56.5C59.1 55.9 58.6 55.3 58.2 54.6L76.7 36.1C77.7 36.2 78.7 36.2 79.6 36.3L59.5 56.5ZM82.3 36.7C83.2 36.8 84.2 36.9 85.1 37.1L62.9 59.1C62.2 58.8 61.5 58.4 60.9 58L82.3 36.7ZM74 36.1 57.2 52.9C56.8 52.2 56.4 51.5 56.1 50.8L70.9 36C71.5 36 72.1 36 72.7 36 73.1 36 73.6 36 74 36.1ZM55.2 48.9C54.8 48.1 54.5 47.4 54.2 46.7L64.4 36.5C65.6 36.3 66.7 36.2 67.9 36.1L55.2 48.9ZM8.6 39.7 7.2 39.7C7.2 39.7 7.2 39.7 7.2 39.7L9.6 37.3C10.9 37.1 12.1 36.9 13.3 36.7L8.9 41.1 8.6 39.7ZM16.6 36.4C17.7 36.3 18.9 36.2 20 36.2L10 46.2C9.8 45.2 9.6 44.3 9.4 43.6L16.6 36.4ZM22.9 36 22.9 36C24 36 25 36 26 36L11.1 51C10.9 50.1 10.7 49.2 10.5 48.4L22.9 36ZM28.7 36.2C29.7 36.3 30.6 36.4 31.6 36.5L12.6 55.5C12.2 54.8 11.9 54 11.7 53.3L28.7 36.2ZM34 36.9C34.9 37.1 35.8 37.2 36.6 37.4L15.7 58.4C15 58.1 14.4 57.6 13.8 57.1L34 36.9ZM38.9 38.1C39.7 38.3 40.5 38.6 41.3 38.9L20.4 59.7C19.5 59.6 18.6 59.4 17.8 59.2L38.9 38.1ZM43.3 39.6 43.3 39.6C44.1 39.9 45 40.1 45.8 40.2L26.1 60C25.7 60 25.4 60 25 60 24.3 60 23.6 60 23 60L43.3 39.6ZM32.9 59.2C31.7 59.6 30.4 59.8 29 59.9L41.5 47.4C41.5 47.4 41.5 47.4 41.5 47.4 40.5 49.6 39.4 51.8 38.2 53.9L32.9 59.2ZM48.6 40.4C49.9 40.3 51.2 40.1 52.5 39.7L50 42.1C49 41.8 48 41.7 47 41.9L48.6 40.4ZM51.8 43.1 56.7 38.2C58.1 37.8 59.5 37.5 60.9 37.2L53.2 44.9C52.9 44.2 52.4 43.6 51.8 43.1ZM70.9 60 86.3 44.6C86.1 45.7 85.8 47.1 85.4 48.7L74.2 59.9C73.3 60 72.4 60 71.3 60 71.2 60 70.9 60 70.9 60ZM84.6 52.3C83.7 56 82 58.4 77.5 59.4L84.6 52.3Z" class="MsftOfcResponsive_Fill_0b2f4a MsftOfcResponsive_Stroke_0b2f4a" stroke="#FFFFFF" stroke-width="1.77778" stroke-linecap="butt" stroke-linejoin="miter" stroke-miterlimit="4" stroke-opacity="1" fill="#0B2F4A" fill-opacity="1"/></g></svg>