<svg width="256" height="256" viewBox="0 0 66 58" xmlns="http://www.w3.org/2000/svg" xmlns:xlink="http://www.w3.org/1999/xlink" overflow="hidden"><g transform="translate(-607 -331)"><path d="M655.058 354.77 655.058 331 628.236 331 628.236 344.123 608 344.123 608 388.971 628.236 388.971 628.236 389 672 389 672 354.77 655.058 354.77 655.058 354.77ZM621.339 387.072 621.339 376.288 616.776 376.288 616.776 387.072 609.879 387.072 609.879 346.021 628.236 346.021 628.236 387.072 621.339 387.072ZM670.121 387.102 646.272 387.102 646.272 367.922 638.116 367.922 638.116 387.102 630.115 387.102 630.115 344.123 630.115 332.908 653.179 332.908 653.179 356.678 670.121 356.678 670.121 387.102ZM632.556 337.498 636.479 337.498 636.479 346.315 632.556 346.315 632.556 337.498ZM640.073 337.498 643.996 337.498 643.996 346.315 640.073 346.315 640.073 337.498ZM647.299 337.498 651.222 337.498 651.222 346.315 647.299 346.315 647.299 337.498ZM632.556 351.031 636.479 351.031 636.479 360.798 632.556 360.798 632.556 351.031ZM640.073 351.031 643.996 351.031 643.996 360.798 640.073 360.798 640.073 351.031ZM647.299 351.031 651.222 351.031 651.222 360.798 647.299 360.798 647.299 351.031ZM658.206 370.006 654.283 370.006 654.283 360.954 658.206 360.954 658.206 370.006ZM658.206 384.489 654.283 384.489 654.283 375.202 658.206 375.202 658.206 384.489ZM666.44 370.006 662.517 370.006 662.517 360.954 666.44 360.954 666.44 370.006ZM666.44 384.489 662.517 384.489 662.517 375.202 666.44 375.202 666.44 384.489ZM612.979 349.182 616.902 349.182 616.902 358.234 612.979 358.234 612.979 349.182ZM612.979 363.43 616.902 363.43 616.902 372.717 612.979 372.717 612.979 363.43ZM621.213 349.182 625.136 349.182 625.136 358.234 621.213 358.234 621.213 349.182ZM621.213 363.43 625.136 363.43 625.136 372.717 621.213 372.717 621.213 363.43Z" stroke="#133B5C" fill="#133B5C" fill-rule="evenodd"/></g></svg>